<svg width="76" height="15" viewBox="0 0 76 15"  xmlns="http://www.w3.org/2000/svg">
<path d="M7.99994 12.3916L11.4583 14.4833C12.0916 14.8666 12.8666 14.3 12.6999 13.5833L11.7833 9.64997L14.8416 6.99997C15.3999 6.51663 15.0999 5.59997 14.3666 5.54163L10.3416 5.19997L8.76661 1.4833C8.48327 0.808301 7.51661 0.808301 7.23327 1.4833L5.65827 5.19163L1.63327 5.5333C0.899939 5.59163 0.599938 6.5083 1.15827 6.99163L4.21661 9.64163L3.29994 13.575C3.13327 14.2916 3.90827 14.8583 4.5416 14.475L7.99994 12.3916Z" fill="#ffcc18"/>
<path d="M22.9999 12.3916L26.4583 14.4833C27.0916 14.8666 27.8666 14.3 27.6999 13.5833L26.7833 9.64997L29.8416 6.99997C30.3999 6.51663 30.0999 5.59997 29.3666 5.54163L25.3416 5.19997L23.7666 1.4833C23.4833 0.808301 22.5166 0.808301 22.2333 1.4833L20.6583 5.19163L16.6333 5.5333C15.8999 5.59163 15.5999 6.5083 16.1583 6.99163L19.2166 9.64163L18.2999 13.575C18.1333 14.2916 18.9083 14.8583 19.5416 14.475L22.9999 12.3916Z" fill="#ffcc18"/>
<path d="M37.9999 12.3916L41.4583 14.4833C42.0916 14.8666 42.8666 14.3 42.6999 13.5833L41.7833 9.64997L44.8416 6.99997C45.3999 6.51663 45.0999 5.59997 44.3666 5.54163L40.3416 5.19997L38.7666 1.4833C38.4833 0.808301 37.5166 0.808301 37.2333 1.4833L35.6583 5.19163L31.6333 5.5333C30.8999 5.59163 30.5999 6.5083 31.1583 6.99163L34.2166 9.64163L33.2999 13.575C33.1333 14.2916 33.9083 14.8583 34.5416 14.475L37.9999 12.3916Z" fill="#ffcc18"/>
<path d="M52.9999 12.3916L56.4583 14.4833C57.0916 14.8666 57.8666 14.3 57.6999 13.5833L56.7833 9.64997L59.8416 6.99997C60.3999 6.51663 60.0999 5.59997 59.3666 5.54163L55.3416 5.19997L53.7666 1.4833C53.4833 0.808301 52.5166 0.808301 52.2333 1.4833L50.6583 5.19163L46.6333 5.5333C45.8999 5.59163 45.5999 6.5083 46.1583 6.99163L49.2166 9.64163L48.2999 13.575C48.1333 14.2916 48.9083 14.8583 49.5416 14.475L52.9999 12.3916Z" fill="#ffcc18"/>
<path d="M67.9999 12.3916L71.4583 14.4833C72.0916 14.8666 72.8666 14.3 72.6999 13.5833L71.7833 9.64997L74.8416 6.99997C75.3999 6.51663 75.0999 5.59997 74.3666 5.54163L70.3416 5.19997L68.7666 1.4833C68.4833 0.808301 67.5166 0.808301 67.2333 1.4833L65.6583 5.19163L61.6333 5.5333C60.8999 5.59163 60.5999 6.5083 61.1583 6.99163L64.2166 9.64163L63.2999 13.575C63.1333 14.2916 63.9083 14.8583 64.5416 14.475L67.9999 12.3916Z" fill="#ffcc18"/>
</svg>
