<svg width="107" height="30" viewBox="0 0 107 30" xmlns="http://www.w3.org/2000/svg">
<path d="M0 29.4V0.600001H5.44V24.32H17.84V29.4H0ZM32.8194 30C29.9394 30 27.4527 29.3733 25.3594 28.12C23.2794 26.8667 21.6727 25.1133 20.5394 22.86C19.4194 20.6067 18.8594 17.9867 18.8594 15C18.8594 12.0133 19.4194 9.39333 20.5394 7.14C21.6727 4.88667 23.2794 3.13333 25.3594 1.88C27.4527 0.626671 29.9394 0 32.8194 0C35.6994 0 38.1794 0.626671 40.2594 1.88C42.3527 3.13333 43.9594 4.88667 45.0794 7.14C46.2127 9.39333 46.7794 12.0133 46.7794 15C46.7794 17.9867 46.2127 20.6067 45.0794 22.86C43.9594 25.1133 42.3527 26.8667 40.2594 28.12C38.1794 29.3733 35.6994 30 32.8194 30ZM32.8194 24.88C34.646 24.9067 36.166 24.5133 37.3794 23.7C38.5927 22.8867 39.4994 21.7333 40.0994 20.24C40.7127 18.7467 41.0194 17 41.0194 15C41.0194 13 40.7127 11.2667 40.0994 9.8C39.4994 8.33333 38.5927 7.19333 37.3794 6.38C36.166 5.56667 34.646 5.14667 32.8194 5.12C30.9927 5.09333 29.4727 5.48666 28.2594 6.3C27.046 7.11333 26.1327 8.26666 25.5194 9.76C24.9194 11.2533 24.6194 13 24.6194 15C24.6194 17 24.9194 18.7333 25.5194 20.2C26.1327 21.6667 27.046 22.8067 28.2594 23.62C29.4727 24.4333 30.9927 24.8533 32.8194 24.88ZM62.7719 30C60.9585 30 59.2319 29.68 57.5919 29.04C55.9519 28.3867 54.4985 27.4267 53.2319 26.16C51.9785 24.8933 50.9852 23.3267 50.2519 21.46C49.5319 19.5933 49.1719 17.44 49.1719 15C49.1719 11.8133 49.7785 9.10667 50.9919 6.88C52.2185 4.64 53.8585 2.93333 55.9119 1.76C57.9785 0.586671 60.2652 0 62.7719 0C66.4785 0 69.3919 0.860001 71.5119 2.58C73.6319 4.3 75.0519 6.73333 75.7719 9.88L70.2119 10.68C69.6919 9 68.8385 7.66 67.6519 6.66C66.4785 5.64667 64.9719 5.13333 63.1319 5.12C61.3052 5.09333 59.7852 5.48666 58.5719 6.3C57.3585 7.11333 56.4452 8.26666 55.8319 9.76C55.2319 11.2533 54.9319 13 54.9319 15C54.9319 17 55.2319 18.7333 55.8319 20.2C56.4452 21.6667 57.3585 22.8067 58.5719 23.62C59.7852 24.4333 61.3052 24.8533 63.1319 24.88C64.3719 24.9067 65.4919 24.6933 66.4919 24.24C67.5052 23.7867 68.3585 23.0733 69.0519 22.1C69.7452 21.1267 70.2385 19.88 70.5319 18.36H65.9719V14.16H76.3319C76.3585 14.3333 76.3785 14.64 76.3919 15.08C76.4052 15.52 76.4119 15.7733 76.4119 15.84C76.4119 18.6 75.8519 21.0467 74.7319 23.18C73.6119 25.3133 72.0319 26.9867 69.9919 28.2C67.9519 29.4 65.5452 30 62.7719 30ZM92.7803 30C89.9003 30 87.4136 29.3733 85.3203 28.12C83.2403 26.8667 81.6336 25.1133 80.5003 22.86C79.3803 20.6067 78.8203 17.9867 78.8203 15C78.8203 12.0133 79.3803 9.39333 80.5003 7.14C81.6336 4.88667 83.2403 3.13333 85.3203 1.88C87.4136 0.626671 89.9003 0 92.7803 0C95.6603 0 98.1403 0.626671 100.22 1.88C102.314 3.13333 103.92 4.88667 105.04 7.14C106.174 9.39333 106.74 12.0133 106.74 15C106.74 17.9867 106.174 20.6067 105.04 22.86C103.92 25.1133 102.314 26.8667 100.22 28.12C98.1403 29.3733 95.6603 30 92.7803 30ZM92.7803 24.88C94.607 24.9067 96.127 24.5133 97.3403 23.7C98.5536 22.8867 99.4603 21.7333 100.06 20.24C100.674 18.7467 100.98 17 100.98 15C100.98 13 100.674 11.2667 100.06 9.8C99.4603 8.33333 98.5536 7.19333 97.3403 6.38C96.127 5.56667 94.607 5.14667 92.7803 5.12C90.9536 5.09333 89.4336 5.48666 88.2203 6.3C87.007 7.11333 86.0936 8.26666 85.4803 9.76C84.8803 11.2533 84.5803 13 84.5803 15C84.5803 17 84.8803 18.7333 85.4803 20.2C86.0936 21.6667 87.007 22.8067 88.2203 23.62C89.4336 24.4333 90.9536 24.8533 92.7803 24.88Z" />
</svg>
